<svg xmlns="http://www.w3.org/2000/svg" width="900" height="560" viewBox="0 0 900 560"><rect width="900" height="560" fill="white"/><text x="55" y="42" font-family="Arial,sans-serif" font-size="27">Magnesium and Phosphate Monitoring</text><line x1="70" y1="485" x2="855" y2="485" stroke="#222"/><line x1="70" y1="70" x2="70" y2="485" stroke="#222"/><g stroke="#ddd"><line x1="70" y1="405" x2="855" y2="405"/><line x1="70" y1="325" x2="855" y2="325"/><line x1="70" y1="245" x2="855" y2="245"/><line x1="70" y1="165" x2="855" y2="165"/></g><g font-family="Arial,sans-serif" font-size="15"><text x="410" y="535">Hospital Day</text><text transform="translate(20,340) rotate(-90)">Laboratory Value (mg/dL)</text><text x="78" y="510">0</text><text x="255" y="510">5</text><text x="445" y="510">10</text><text x="635" y="510">15</text><text x="825" y="510">20</text></g><polyline points="70,165 100,185 130,130 165,210 205,245 245,270 285,260 330,285 375,275 420,255 465,245 510,230 555,210 600,190 645,175 690,165 735,150 780,140 825,125" fill="none" stroke="#1f77b4" stroke-width="3"/><polyline points="70,315 110,305 150,300 190,310 230,315 270,320 310,325 350,330 390,335 430,340 470,345 510,350 550,352 590,355 630,360 670,365 710,370 750,375 790,378 830,380" fill="none" stroke="#ff7f0e" stroke-width="3"/><g font-family="Arial,sans-serif" font-size="15"><line x1="95" y1="85" x2="130" y2="85" stroke="#1f77b4" stroke-width="3"/><text x="140" y="90">Phosphate</text><line x1="95" y1="112" x2="130" y2="112" stroke="#ff7f0e" stroke-width="3"/><text x="140" y="117">Magnesium</text></g></svg>